<svg width="201" height="52" viewBox="0 0 201 52" fill="none" xmlns="http://www.w3.org/2000/svg">
<path d="M13.1672 12.2248C9.97209 14.1858 3.8294 14.8318 2.33416 14.9633C2.14724 14.9798 2.00439 15.136 2.01188 15.3235C2.09792 17.476 2.72046 29.5091 6.04145 35.0955C9.45062 40.8302 19.2691 45.7695 20.5743 46.408C20.6677 46.4536 20.7681 46.4547 20.8617 46.4096C22.1075 45.8101 31.1232 41.3065 34.2253 35.0955C37.1501 29.2394 37.916 16.8398 38.0359 14.5183C38.0464 14.3134 37.8817 14.1463 37.6766 14.1504C36.1331 14.1813 30.2537 14.164 27.525 12.2248C24.8745 10.3412 21.8761 6.89586 20.9827 5.83946C20.8429 5.67414 20.5883 5.67052 20.4427 5.83081C19.4929 6.87692 16.2445 10.336 13.1672 12.2248Z" fill="url(#paint0_linear_98_185)" stroke="#0073A1" stroke-width="2.10023" stroke-linejoin="round"/>
<rect x="20.2019" y="14.6242" width="3.50039" height="3.50039" rx="0.350039" fill="#FDFDFD"/>
<rect x="23.7024" y="18.1246" width="3.50039" height="3.50039" rx="0.350039" fill="#FDFDFD"/>
<rect x="27.2029" y="14.6242" width="3.85043" height="3.50039" rx="0.350039" fill="#FDFDFD"/>
<rect x="31.0532" y="18.1246" width="3.50039" height="3.50039" rx="0.350039" fill="#FDFDFD"/>
<rect x="20.2019" y="21.625" width="3.50039" height="3.85043" rx="0.350039" fill="#FDFDFD"/>
<rect x="27.2029" y="21.625" width="3.85043" height="3.85043" rx="0.350039" fill="#FDFDFD"/>
<rect x="23.7024" y="25.4754" width="3.50039" height="3.50039" rx="0.350039" fill="#FDFDFD"/>
<rect x="31.0532" y="25.4754" width="3.50039" height="3.50039" rx="0.350039" fill="#FDFDFD"/>
<rect x="20.2019" y="28.9758" width="3.50039" height="3.50039" rx="0.350039" fill="#FDFDFD"/>
<rect x="27.2029" y="28.9758" width="3.85043" height="3.50039" rx="0.350039" fill="#FDFDFD"/>
<rect x="23.7024" y="32.4762" width="3.50039" height="3.50039" rx="0.350039" fill="#FDFDFD"/>
<rect x="20.2019" y="35.9765" width="3.50039" height="3.85043" rx="0.350039" fill="#FDFDFD"/>
<path d="M20.9023 45.4276L20.6924 6.57328C20.6924 6.57328 15.6184 12.4671 11.3536 13.944C7.08887 15.4209 3.06416 15.5235 3.06416 15.5235C3.06416 15.5235 2.53962 30.2764 7.94279 36.6781C11.3978 40.7717 20.9023 45.4276 20.9023 45.4276Z" fill="#00ADF1"/>
<path d="M49.9553 15.1345H54.0285V19.2077H49.9553V15.1345ZM49.9553 19.2077H54.0285V23.2808H49.9553V19.2077ZM49.9553 23.2808H54.0285V27.354H49.9553V23.2808ZM49.9553 27.354H54.0285V31.4272H49.9553V27.354ZM49.9553 31.4272H54.0285V35.5004H49.9553V31.4272ZM54.0285 15.1345H58.1017V19.2077H54.0285V15.1345ZM58.1017 15.1345H62.1749V19.2077H58.1017V15.1345ZM58.1017 19.2077H62.1749V23.2808H58.1017V19.2077ZM58.1017 23.2808H62.1749V27.354H58.1017V23.2808ZM54.0285 23.2808H58.1017V27.354H54.0285V23.2808ZM66.2321 31.4272H70.3053V35.5004H66.2321V31.4272ZM66.2321 27.354H70.3053V31.4272H66.2321V27.354ZM66.2321 23.2808H70.3053V27.354H66.2321V23.2808ZM66.2321 15.1345H70.3053V19.2077H66.2321V15.1345ZM74.3705 19.2077H78.4437V23.2808H74.3705V19.2077ZM82.5169 19.2077H86.5901V23.2808H82.5169V19.2077ZM74.3705 31.4272H78.4437V35.5004H74.3705V31.4272ZM82.5169 31.4272H86.5901V35.5004H82.5169V31.4272ZM78.4437 27.354H82.5169V31.4272H78.4437V27.354ZM78.4437 23.2808H82.5169V27.354H78.4437V23.2808ZM94.7205 19.2077H98.7937V23.2808H94.7205V19.2077ZM98.7937 23.2808H102.867V27.354H98.7937V23.2808ZM90.6473 23.2808H94.7205V27.354H90.6473V23.2808ZM98.7937 27.354H102.867V31.4272H98.7937V27.354ZM94.7205 27.354H98.7937V31.4272H94.7205V27.354ZM90.6473 27.354H94.7205V31.4272H90.6473V27.354ZM90.6473 31.4272H94.7205V35.5004H90.6473V31.4272ZM94.7205 35.5004H98.7937V39.5736H94.7205V35.5004ZM106.924 15.1345H110.997V19.2077H106.924V15.1345ZM106.924 19.2077H110.997V23.2808H106.924V19.2077ZM106.924 23.2808H110.997V27.354H106.924V23.2808ZM106.924 27.354H110.997V31.4272H106.924V27.354ZM106.924 31.4272H110.997V35.5004H106.924V31.4272Z" fill="#FDFDFD"/>
<path d="M123.209 15.1345H127.282V19.2077H123.209V15.1345ZM119.136 15.1345H123.209V19.2077H119.136V15.1345ZM115.063 19.2077H119.136V23.2808H115.063V19.2077ZM115.063 23.2808H119.136V27.354H115.063V23.2808ZM119.136 23.2808H123.209V27.354H119.136V23.2808ZM123.209 23.2808H127.282V27.354H123.209V23.2808ZM123.209 27.354H127.282V31.4272H123.209V27.354ZM123.209 31.4272H127.282V35.5004H123.209V31.4272ZM119.136 31.4272H123.209V35.5004H119.136V31.4272ZM115.063 31.4272H119.136V35.5004H115.063V31.4272ZM115.063 15.1345H119.136V19.2077H115.063V15.1345ZM131.339 15.1345H135.413V19.2077H131.339V15.1345ZM131.339 19.2077H135.413V23.2808H131.339V19.2077ZM131.339 23.2808H135.413V27.354H131.339V23.2808ZM131.339 27.354H135.413V31.4272H131.339V27.354ZM131.339 31.4272H135.413V35.5004H131.339V31.4272ZM135.413 19.2077H139.486V23.2808H135.413V19.2077ZM139.486 23.2808H143.559V27.354H139.486V23.2808ZM139.486 27.354H143.559V31.4272H139.486V27.354ZM139.486 31.4272H143.559V35.5004H139.486V31.4272ZM147.616 31.4272H151.689V35.5004H147.616V31.4272ZM147.616 27.354H151.689V31.4272H147.616V27.354ZM147.616 23.2808H151.689V27.354H147.616V23.2808ZM147.616 15.1345H151.689V19.2077H147.616V15.1345ZM159.828 19.2077H163.901V23.2808H159.828V19.2077ZM163.901 23.2808H167.974V27.354H163.901V23.2808ZM155.755 23.2808H159.828V27.354H155.755V23.2808ZM163.901 27.354H167.974V31.4272H163.901V27.354ZM159.828 27.354H163.901V31.4272H159.828V27.354ZM155.755 27.354H159.828V31.4272H155.755V27.354ZM155.755 31.4272H159.828V35.5004H155.755V31.4272ZM159.828 35.5004H163.901V39.5736H159.828V35.5004ZM172.031 15.1345H176.105V19.2077H172.031V15.1345ZM172.031 19.2077H176.105V23.2808H172.031V19.2077ZM172.031 23.2808H176.105V27.354H172.031V23.2808ZM172.031 27.354H176.105V31.4272H172.031V27.354ZM172.031 31.4272H176.105V35.5004H172.031V31.4272ZM188.316 15.1345H192.389V19.2077H188.316V15.1345ZM188.316 19.2077H192.389V23.2808H188.316V19.2077ZM188.316 23.2808H192.389V27.354H188.316V23.2808ZM188.316 27.354H192.389V31.4272H188.316V27.354ZM188.316 31.4272H192.389V35.5004H188.316V31.4272ZM184.243 19.2077H188.316V23.2808H184.243V19.2077ZM180.17 23.2808H184.243V27.354H180.17V23.2808ZM180.17 27.354H184.243V31.4272H180.17V27.354ZM184.243 31.4272H188.316V35.5004H184.243V31.4272Z" fill="#00ADF1"/>
<defs>
<linearGradient id="paint0_linear_98_185" x1="2" y1="40.5731" x2="12.6652" y2="4.01995" gradientUnits="userSpaceOnUse">
<stop stop-color="#CCEFFC"/>
<stop offset="0.481667" stop-color="#80D6F8"/>
<stop offset="0.626667" stop-color="#55C8F6"/>
<stop offset="0.846667" stop-color="#2ABBF3"/>
<stop offset="1" stop-color="#00ADF1"/>
</linearGradient>
</defs>
</svg>
